# xmcd
#
# Track frame offsets:
#	150
#	18675
#	37802
#	60935
#	78167
#	98760
#	116972
#	137775
#	155572
#	172255
#	193085
#	213115
#
# Disc length: 3045 seconds
#
# Revision: 1
# Processed by: cddbd v1.5.1PL0 Copyright (c) Steve Scherf et al.
# Submitted via: audiograbber 1.83.01
#
DISCID=9f0be30c
DTITLE=Steve Gibson - The Edge
DYEAR=1900
DGENRE=Country
TTITLE0=The Edge
TTITLE1=Simple Man
TTITLE2=That's The Way It Is
TTITLE3=Dance With A Cowboy
TTITLE4=Where Will The Cowboys Ride
TTITLE5=It's Gonna Get Worse
TTITLE6=Cross Roads
TTITLE7=Theres A Little Bit Of Cowboy In Me
TTITLE8=You Can't Change That
TTITLE9=Rosa-Leigh
TTITLE10=Let's Say Goodbye
TTITLE11=I Won't Quit
EXTD=
EXTT0=
EXTT1=
EXTT2=
EXTT3=
EXTT4=
EXTT5=
EXTT6=
EXTT7=
EXTT8=
EXTT9=
EXTT10=
EXTT11=
PLAYORDER=
